<?xml version="1.0" encoding="UTF-8" standalone="no"?>
<!DOCTYPE svg PUBLIC "-//W3C//DTD SVG 1.1//EN" "http://www.w3.org/Graphics/SVG/1.1/DTD/svg11.dtd">
<svg xmlns="http://www.w3.org/2000/svg" version="1.1" viewBox="0.00 0.00 599.00 325.00">
<g stroke-width="2.00" fill="none" stroke-linecap="butt">
<path stroke="#80809d" vector-effect="non-scaling-stroke" d="
  M 418.54 0.00
  L 372.46 32.97
  Q 372.05 33.26 372.05 33.77
  L 372.07 62.11"
/>
<path stroke="#e5ce97" vector-effect="non-scaling-stroke" d="
  M 372.07 62.11
  Q 364.33 69.19 358.33 76.87"
/>
<path stroke="#fbfcbf" vector-effect="non-scaling-stroke" d="
  M 358.33 76.87
  Q 356.55 79.43 354.88 81.41
  Q 352.54 84.17 351.49 85.94
  Q 329.96 122.31 339.50 163.50
  Q 343.19 179.44 353.14 194.45"
/>
<path stroke="#e5ce97" vector-effect="non-scaling-stroke" d="
  M 353.14 194.45
  Q 360.63 206.35 371.80 215.17"
/>
<path stroke="#80809d" vector-effect="non-scaling-stroke" d="
  M 371.80 215.17
  L 371.83 253.82
  A 0.49 0.48 90.0 0 0 372.31 254.31
  L 419.98 254.32
  Q 420.40 254.32 420.40 253.90
  L 420.44 52.97"
/>
<path stroke="#e5ce97" vector-effect="non-scaling-stroke" d="
  M 420.44 52.97
  Q 420.57 51.28 421.17 50.20
  Q 421.42 49.76 421.93 49.73
  L 430.98 49.18"
/>
<path stroke="#80809d" vector-effect="non-scaling-stroke" d="
  M 430.98 49.18
  L 431.16 229.01"
/>
<path stroke="#e5ce97" vector-effect="non-scaling-stroke" d="
  M 431.16 229.01
  L 423.00 228.51
  A 0.92 0.91 -12.5 0 0 422.14 229.86
  C 423.02 231.47 423.94 235.28 422.39 236.71
  A 0.89 0.89 0.0 0 0 422.87 238.25
  L 431.11 239.42"
/>
<path stroke="#80809d" vector-effect="non-scaling-stroke" d="
  M 431.11 239.42
  L 431.10 274.94
  A 0.30 0.30 0.0 0 1 430.78 275.24
  Q 415.00 274.17 399.42 270.66
  C 369.73 263.98 340.37 253.56 312.45 240.34
  Q 310.43 239.38 312.13 240.82
  C 345.71 269.26 385.91 291.61 430.53 292.26
  A 0.70 0.70 0.0 0 1 431.22 292.96
  L 431.13 303.62
  A 0.58 0.58 0.0 0 0 431.71 304.20
  L 441.09 304.20
  A 0.67 0.67 0.0 0 0 441.76 303.53
  L 441.71 292.97
  Q 441.70 292.26 442.41 292.26
  Q 497.02 292.03 539.73 256.85
  Q 550.01 248.39 557.57 240.58
  Q 558.80 239.31 557.26 240.18
  Q 552.68 242.76 547.67 245.23
  C 514.84 261.38 478.93 274.06 442.78 275.62
  Q 441.71 275.67 441.71 274.59
  L 441.75 239.92"
/>
<path stroke="#e5ce97" vector-effect="non-scaling-stroke" d="
  M 441.75 239.92
  Q 442.91 239.01 444.26 239.08
  Q 449.34 239.33 452.28 237.34"
/>
<path stroke="#80809d" vector-effect="non-scaling-stroke" d="
  M 452.28 237.34
  L 452.39 253.91
  A 0.40 0.40 0.0 0 0 452.79 254.31
  L 500.67 254.30
  A 0.37 0.37 0.0 0 0 501.04 253.93
  L 500.95 216.94"
/>
<path stroke="#e5ce97" vector-effect="non-scaling-stroke" d="
  M 500.95 216.94
  C 502.56 215.36 504.59 214.05 506.03 212.70
  Q 512.40 206.70 517.54 199.68"
/>
<path stroke="#fbfcbf" vector-effect="non-scaling-stroke" d="
  M 517.54 199.68
  Q 519.48 196.96 521.41 194.26
  Q 523.60 191.19 525.00 188.66
  C 541.98 157.98 542.13 120.78 525.08 89.90
  Q 522.17 84.63 519.12 81.03"
/>
<path stroke="#e5ce97" vector-effect="non-scaling-stroke" d="
  M 519.12 81.03
  Q 511.87 69.82 500.93 61.52"
/>
<path stroke="#80809d" vector-effect="non-scaling-stroke" d="
  M 500.93 61.52
  L 501.01 34.58
  Q 501.02 33.39 500.05 32.70
  L 454.42 0.00"
/>
<path stroke="#80809d" vector-effect="non-scaling-stroke" d="
  M 188.19 129.81
  L 190.67 135.53
  Q 190.97 136.23 191.74 136.24
  L 197.81 136.29
  Q 198.42 136.29 198.17 135.73
  L 179.52 93.05
  A 1.59 1.59 0.0 0 0 176.61 93.05
  L 158.04 135.52
  Q 157.72 136.24 158.51 136.25
  L 164.31 136.28
  Q 165.09 136.28 165.41 135.58
  L 167.90 130.08
  A 1.00 0.99 -77.3 0 1 168.80 129.50
  L 187.75 129.52
  A 0.48 0.47 -11.0 0 1 188.19 129.81"
/>
<path stroke="#80809d" vector-effect="non-scaling-stroke" d="
  M 73.43 135.83
  Q 74.96 136.51 79.63 136.25
  A 0.45 0.44 88.7 0 0 80.05 135.80
  L 80.01 108.02
  Q 80.00 106.85 80.78 107.73
  L 106.56 136.95
  A 1.46 1.45 -59.2 0 0 109.07 136.31
  Q 109.13 136.07 109.13 135.80
  Q 109.28 114.47 109.18 93.45
  Q 109.17 93.15 108.87 93.15
  L 102.70 93.19
  Q 102.33 93.19 102.33 93.55
  L 102.39 121.23
  Q 102.40 122.78 101.36 121.62
  L 73.58 90.47"
/>
<path stroke="#87879a" vector-effect="non-scaling-stroke" d="
  M 73.58 90.47
  Q 72.41 115.06 73.43 135.83"
/>
<path stroke="#070838" vector-effect="non-scaling-stroke" d="
  M 73.58 90.47
  Q 74.64 98.67 74.49 104.68
  Q 74.27 113.73 74.27 113.82
  Q 74.40 124.59 73.43 135.83"
/>
<path stroke="#80809d" vector-effect="non-scaling-stroke" d="
  M 124.77 107.45
  A 0.55 0.54 -13.7 0 1 125.04 107.61
  Q 138.43 122.90 150.16 136.25
  Q 151.25 137.49 152.90 137.22
  A 0.50 0.49 86.0 0 0 153.32 136.73
  L 153.31 93.52
  Q 153.31 93.22 153.02 93.22
  L 146.91 93.23
  Q 146.56 93.23 146.56 93.58
  L 146.61 121.07
  Q 146.62 122.73 145.52 121.48
  Q 132.55 106.69 120.45 93.06
  Q 119.36 91.83 117.87 92.31
  Q 117.37 92.47 117.37 92.99
  L 117.31 135.87
  Q 117.31 136.23 117.67 136.23
  L 123.96 136.27
  Q 124.24 136.27 124.24 135.98
  Q 124.21 121.51 124.26 107.57
  Q 124.26 107.35 124.77 107.45"
/>
<path stroke="#80809d" vector-effect="non-scaling-stroke" d="
  M 216.90 92.64
  C 192.23 96.90 192.01 132.00 216.54 136.68
  Q 230.74 139.39 239.48 127.59
  A 0.82 0.81 -53.8 0 0 239.31 126.44
  L 234.98 123.31
  Q 234.51 122.97 234.20 123.46
  C 230.67 129.21 223.65 131.90 217.15 130.13
  Q 207.66 127.56 205.64 118.05
  C 204.40 112.20 206.55 105.60 211.54 102.05
  C 219.35 96.51 228.55 98.07 234.11 105.75
  Q 234.65 106.50 235.39 105.94
  L 239.15 103.04
  A 0.99 0.98 -37.8 0 0 239.33 101.65
  Q 230.50 90.30 216.90 92.64"
/>
<path stroke="#80809d" vector-effect="non-scaling-stroke" d="
  M 65.52 93.40
  A 0.27 0.27 0.0 0 0 65.25 93.13
  L 58.91 93.13
  A 0.27 0.27 0.0 0 0 58.64 93.40
  L 58.64 135.96
  A 0.27 0.27 0.0 0 0 58.91 136.23
  L 65.25 136.23
  A 0.27 0.27 0.0 0 0 65.52 135.96
  L 65.52 93.40"
/>
<path stroke="#87879a" vector-effect="non-scaling-stroke" d="
  M 283.92 129.86
  A 0.46 0.46 0.0 0 1 283.46 129.40
  L 283.48 117.18
  A 0.46 0.46 0.0 0 1 283.94 116.72
  L 299.29 116.74
  A 0.46 0.46 0.0 0 0 299.75 116.28
  L 299.81 110.70
  A 0.46 0.46 0.0 0 0 299.35 110.23
  L 283.92 110.29
  A 0.46 0.46 0.0 0 1 283.46 109.83
  L 283.50 100.08
  A 0.46 0.46 0.0 0 1 283.96 99.62
  L 304.80 99.66
  A 0.46 0.46 0.0 0 0 305.26 99.20
  L 305.29 93.71
  A 0.46 0.46 0.0 0 0 304.83 93.25
  L 277.00 93.21
  A 0.46 0.46 0.0 0 0 276.54 93.67
  L 276.50 135.80
  A 0.46 0.46 0.0 0 0 276.96 136.26
  L 305.66 136.26
  A 0.46 0.46 0.0 0 0 306.12 135.80
  L 306.17 130.27
  A 0.46 0.46 0.0 0 0 305.71 129.81
  L 283.92 129.86"
/>
<path stroke="#80809d" vector-effect="non-scaling-stroke" d="
  M 29.74 119.65
  A 0.43 0.43 0.0 0 1 30.19 119.22
  Q 36.18 119.42 41.14 119.14
  Q 45.58 118.88 49.19 115.97
  C 53.52 112.48 54.76 105.86 52.71 101.03
  Q 49.85 94.33 41.63 93.50
  Q 35.62 92.90 23.61 93.31
  Q 23.05 93.33 23.05 93.90
  L 23.03 136.01
  A 0.23 0.23 0.0 0 0 23.26 136.24
  L 29.50 136.25
  A 0.25 0.24 90.0 0 0 29.74 136.00
  L 29.74 119.65"
/>
<path stroke="#87879a" vector-effect="non-scaling-stroke" d="
  M 253.07 129.91
  A 0.32 0.32 0.0 0 1 252.75 129.59
  L 252.76 93.54
  A 0.32 0.32 0.0 0 0 252.44 93.22
  L 246.30 93.21
  A 0.32 0.32 0.0 0 0 245.98 93.53
  L 245.97 135.93
  A 0.32 0.32 0.0 0 0 246.29 136.25
  L 272.57 136.26
  A 0.32 0.32 0.0 0 0 272.89 135.94
  L 272.90 130.17
  A 0.32 0.32 0.0 0 0 272.58 129.85
  L 253.07 129.91"
/>
<path stroke="#e5ce97" vector-effect="non-scaling-stroke" d="
  M 158.4409 176.4997
  A 23.27 22.98 1.6 0 0 135.8216 152.8790
  A 23.27 22.98 1.6 0 0 111.9191 175.2003
  A 23.27 22.98 1.6 0 0 134.5384 198.8210
  A 23.27 22.98 1.6 0 0 158.4409 176.4997"
/>
<path stroke="#80809d" vector-effect="non-scaling-stroke" d="
  M 183.11 168.82
  Q 183.47 168.62 183.70 168.89
  Q 196.74 183.80 208.72 197.25
  Q 211.94 200.86 211.95 196.03
  L 212.02 154.75
  A 0.25 0.25 0.0 0 0 211.77 154.50
  L 205.50 154.57
  Q 205.33 154.57 205.33 154.75
  L 205.40 182.69
  Q 205.41 184.06 204.49 183.04
  Q 192.29 169.34 179.49 154.66
  Q 178.25 153.25 176.57 153.82
  Q 176.09 153.99 176.09 154.49
  L 176.06 197.03
  Q 176.06 197.76 176.79 197.75
  L 182.29 197.67
  Q 182.95 197.66 182.95 197.00
  L 182.91 169.17
  A 0.41 0.38 76.4 0 1 183.11 168.82"
/>
<path stroke="#80809d" vector-effect="non-scaling-stroke" d="
  M 85.44 180.51
  Q 90.75 180.55 95.87 180.47
  C 104.60 180.33 110.65 172.87 108.57 164.17
  C 106.91 157.25 100.49 154.36 93.75 154.46
  Q 85.87 154.58 78.66 154.54
  Q 78.12 154.53 78.12 155.07
  L 78.10 196.91
  Q 78.10 197.72 78.91 197.72
  L 84.50 197.72
  Q 85.22 197.72 85.21 197.00
  L 85.11 180.83
  A 0.33 0.32 -0.0 0 1 85.44 180.51"
/>
<path stroke="#87879a" vector-effect="non-scaling-stroke" d="
  M 168.48 154.92
  A 0.40 0.40 0.0 0 0 168.08 154.52
  L 162.06 154.52
  A 0.40 0.40 0.0 0 0 161.66 154.92
  L 161.66 197.32
  A 0.40 0.40 0.0 0 0 162.06 197.72
  L 168.08 197.72
  A 0.40 0.40 0.0 0 0 168.48 197.32
  L 168.48 154.92"
/>
<path stroke="#80809d" vector-effect="non-scaling-stroke" d="
  M 237.49 161.20
  A 0.35 0.35 0.0 0 1 237.84 160.85
  L 251.92 160.93
  A 0.35 0.35 0.0 0 0 252.27 160.58
  L 252.31 154.88
  A 0.35 0.35 0.0 0 0 251.96 154.53
  L 216.21 154.55
  A 0.35 0.35 0.0 0 0 215.86 154.90
  L 215.89 160.58
  A 0.35 0.35 0.0 0 0 216.24 160.93
  L 230.19 160.83
  A 0.35 0.35 0.0 0 1 230.54 161.18
  L 230.57 197.38
  A 0.35 0.35 0.0 0 0 230.92 197.73
  L 237.13 197.70
  A 0.35 0.35 0.0 0 0 237.48 197.35
  L 237.49 161.20"
/>
<path stroke="#87879a" vector-effect="non-scaling-stroke" d="
  M 307.48 214.49
  A 0.46 0.46 0.0 0 0 307.02 214.03
  L 22.14 214.03
  A 0.46 0.46 0.0 0 0 21.68 214.49
  L 21.68 220.11
  A 0.46 0.46 0.0 0 0 22.14 220.57
  L 307.02 220.57
  A 0.46 0.46 0.0 0 0 307.48 220.11
  L 307.48 214.49"
/>
<path stroke="#87879a" vector-effect="non-scaling-stroke" d="
  M 118.26 242.49
  L 118.26 254.02
  Q 118.26 254.77 119.02 254.76
  L 120.88 254.72
  Q 121.71 254.70 121.72 253.87
  L 121.75 233.47
  A 0.69 0.68 82.0 0 0 120.88 232.81
  Q 120.42 232.94 120.11 233.35
  Q 115.97 238.92 111.69 244.52
  A 0.41 0.41 0.0 0 1 111.04 244.52
  L 103.10 233.94
  Q 100.74 230.80 100.76 234.73
  L 100.83 253.78
  Q 100.84 254.73 101.78 254.74
  L 103.72 254.75
  Q 104.45 254.76 104.45 254.03
  L 104.50 242.06
  Q 104.50 241.20 105.03 241.88
  L 110.62 249.15
  A 0.99 0.99 0.0 0 0 112.19 249.14
  L 117.46 242.22
  Q 118.26 241.17 118.26 242.49"
/>
<path stroke="#87879a" vector-effect="non-scaling-stroke" d="
  M 134.25 233.37
  A 0.63 0.63 0.0 0 0 133.62 232.74
  L 131.32 232.74
  A 0.63 0.63 0.0 0 0 130.69 233.37
  L 130.69 254.11
  A 0.63 0.63 0.0 0 0 131.32 254.74
  L 133.62 254.74
  A 0.63 0.63 0.0 0 0 134.25 254.11
  L 134.25 233.37"
/>
<path stroke="#87879a" vector-effect="non-scaling-stroke" d="
  M 146.18 241.44
  Q 146.18 240.07 147.10 241.08
  Q 153.21 247.78 158.93 254.11
  Q 159.43 254.67 160.13 254.90
  A 0.45 0.45 0.0 0 0 160.73 254.47
  Q 160.77 243.97 160.76 233.60
  Q 160.76 232.92 160.16 232.82
  Q 159.19 232.66 158.04 232.71
  A 0.85 0.85 0.0 0 0 157.22 233.57
  L 157.23 246.20
  Q 157.24 247.51 156.36 246.54
  Q 150.76 240.34 144.39 233.31
  Q 143.93 232.80 143.25 232.74
  A 0.55 0.55 0.0 0 0 142.65 233.29
  L 142.66 254.07
  Q 142.66 254.73 143.32 254.73
  L 145.34 254.75
  Q 146.19 254.76 146.19 253.91
  L 146.18 241.44"
/>
<path stroke="#87879a" vector-effect="non-scaling-stroke" d="
  M 173.4279 233.4732
  A 0.78 0.78 0.0 0 0 172.6492 232.6918
  L 170.6093 232.6882
  A 0.78 0.78 0.0 0 0 169.8279 233.4669
  L 169.7921 253.9668
  A 0.78 0.78 0.0 0 0 170.5708 254.7482
  L 172.6107 254.7518
  A 0.78 0.78 0.0 0 0 173.3921 253.9731
  L 173.4279 233.4732"
/>
<path stroke="#87879a" vector-effect="non-scaling-stroke" d="
  M 185.28 241.03
  Q 185.28 240.01 185.97 240.77
  Q 192.29 247.72 198.50 254.62
  Q 198.78 254.93 199.19 254.95
  A 0.67 0.66 0.8 0 0 199.88 254.29
  L 199.92 233.45
  Q 199.92 232.73 199.20 232.72
  L 197.07 232.68
  A 0.75 0.74 -89.6 0 0 196.32 233.43
  L 196.33 246.22
  Q 196.33 247.42 195.52 246.53
  L 183.63 233.46
  Q 181.77 231.41 181.77 234.18
  L 181.76 253.86
  Q 181.76 254.71 182.61 254.72
  L 184.52 254.75
  Q 185.29 254.76 185.29 253.98
  L 185.28 241.03"
/>
<path stroke="#87879a" vector-effect="non-scaling-stroke" d="
  M 222.62 246.28
  A 1.21 1.20 -70.1 0 1 223.54 248.25
  Q 219.99 252.58 215.02 251.36
  C 208.21 249.69 206.36 241.21 212.23 237.39
  C 215.85 235.03 219.85 235.80 222.80 238.86
  A 0.97 0.96 -37.5 0 0 223.99 239.01
  Q 224.78 238.52 225.36 237.81
  Q 225.75 237.33 225.35 236.86
  C 220.77 231.58 213.45 231.39 208.40 236.04
  C 205.14 239.03 204.37 244.31 206.14 248.20
  C 209.55 255.73 219.08 256.71 225.15 251.53
  C 227.34 249.65 227.17 246.28 227.03 243.54
  A 0.57 0.57 0.0 0 0 226.46 243.00
  L 217.16 242.98
  Q 216.55 242.98 216.55 243.59
  L 216.56 245.54
  Q 216.57 246.27 217.29 246.27
  L 222.62 246.28"
/>
<path stroke="#80809d" vector-effect="non-scaling-stroke" d="
  M 420.51 0.00
  L 420.49 40.52"
/>
<path stroke="#654f35" vector-effect="non-scaling-stroke" d="
  M 420.49 40.52
  L 420.44 52.97"
/>
<path stroke="#654f35" vector-effect="non-scaling-stroke" d="
  M 371.80 215.17
  L 371.67 201.60"
/>
<path stroke="#80809d" vector-effect="non-scaling-stroke" d="
  M 371.67 201.60
  L 371.87 77.33"
/>
<path stroke="#654f35" vector-effect="non-scaling-stroke" d="
  M 371.87 77.33
  L 372.07 62.11"
/>
<path stroke="#80809d" vector-effect="non-scaling-stroke" d="
  M 430.95 0.00
  L 431.07 38.40"
/>
<path stroke="#e5ce97" vector-effect="non-scaling-stroke" d="
  M 431.07 38.40
  Q 427.43 39.49 423.20 39.62
  Q 422.57 39.63 421.99 40.40
  Q 421.64 40.86 421.35 40.89
  Q 420.92 40.93 420.49 40.52"
/>
<path stroke="#80809d" vector-effect="non-scaling-stroke" d="
  M 441.79 0.00
  L 441.77 38.31"
/>
<path stroke="#654f35" vector-effect="non-scaling-stroke" d="
  M 441.77 38.31
  L 431.07 38.40"
/>
<path stroke="#80809d" vector-effect="non-scaling-stroke" d="
  M 452.43 0.00
  L 452.48 39.67"
/>
<path stroke="#e5ce97" vector-effect="non-scaling-stroke" d="
  M 452.48 39.67
  L 441.77 38.31"
/>
<path stroke="#654f35" vector-effect="non-scaling-stroke" d="
  M 500.93 61.52
  L 500.96 76.29"
/>
<path stroke="#80809d" vector-effect="non-scaling-stroke" d="
  M 500.96 76.29
  L 500.96 202.79"
/>
<path stroke="#654f35" vector-effect="non-scaling-stroke" d="
  M 500.96 202.79
  L 500.95 216.94"
/>
<path stroke="#654f35" vector-effect="non-scaling-stroke" d="
  M 452.28 237.34
  L 452.49 228.87"
/>
<path stroke="#80809d" vector-effect="non-scaling-stroke" d="
  M 452.49 228.87
  L 452.49 49.83"
/>
<path stroke="#654f35" vector-effect="non-scaling-stroke" d="
  M 452.49 49.83
  L 452.48 39.67"
/>
<path stroke="#e5ce97" vector-effect="non-scaling-stroke" d="
  M 452.49 49.83
  L 441.75 49.37"
/>
<path stroke="#654f35" vector-effect="non-scaling-stroke" d="
  M 441.75 49.37
  L 430.98 49.18"
/>
<path stroke="#80809d" vector-effect="non-scaling-stroke" d="
  M 441.75 49.37
  L 441.74 228.76"
/>
<path stroke="#654f35" vector-effect="non-scaling-stroke" d="
  M 441.74 228.76
  L 431.16 229.01"
/>
<path stroke="#e5ce97" vector-effect="non-scaling-stroke" d="
  M 452.49 228.87
  L 441.74 228.76"
/>
<path stroke="#e5ce97" vector-effect="non-scaling-stroke" d="
  M 371.87 77.33
  Q 363.27 86.39 357.10 97.91"
/>
<path stroke="#e1cb57" vector-effect="non-scaling-stroke" d="
  M 357.10 97.91
  Q 356.82 87.48 358.33 76.87"
/>
<path stroke="#e1cb57" vector-effect="non-scaling-stroke" d="
  M 519.12 81.03
  C 516.44 83.30 518.99 84.39 518.92 86.75
  Q 518.81 90.29 519.11 93.07
  Q 519.12 93.19 519.32 96.98
  Q 519.43 99.23 520.41 101.72
  Q 520.72 102.50 519.52 102.43"
/>
<path stroke="#e5ce97" vector-effect="non-scaling-stroke" d="
  M 519.52 102.43
  C 515.73 93.05 509.23 84.74 502.75 77.01
  Q 502.39 76.57 502.43 75.94
  Q 502.46 75.54 502.08 75.43
  Q 501.76 75.34 501.43 75.36
  Q 500.96 75.40 500.92 75.88
  Q 500.91 76.10 500.96 76.29"
/>
<path stroke="#fbfcbf" vector-effect="non-scaling-stroke" d="
  M 519.52 102.43
  C 529.06 124.91 529.99 149.59 520.86 172.28
  Q 520.07 174.25 519.58 176.12"
/>
<path stroke="#e5ce97" vector-effect="non-scaling-stroke" d="
  M 519.58 176.12
  Q 517.87 180.05 515.82 183.34
  Q 510.59 191.75 504.22 199.31
  Q 503.81 199.80 502.90 201.28
  Q 502.01 202.72 500.96 202.79"
/>
<path stroke="#fbfcbf" vector-effect="non-scaling-stroke" d="
  M 357.10 97.91
  Q 340.12 132.35 352.40 169.53"
/>
<path stroke="#e1cb57" vector-effect="non-scaling-stroke" d="
  M 352.40 169.53
  Q 352.10 169.33 351.79 169.35
  A 0.51 0.50 81.4 0 0 351.32 169.99
  L 352.97 175.83
  Q 353.08 176.25 352.83 176.60
  Q 352.46 177.11 352.43 177.73
  Q 352.17 183.80 352.82 189.57
  Q 352.88 190.07 353.23 190.42
  Q 355.13 192.34 353.14 194.45"
/>
<path stroke="#e5ce97" vector-effect="non-scaling-stroke" d="
  M 371.67 201.60
  Q 370.53 201.39 369.73 199.54
  Q 369.07 198.04 368.37 197.21
  Q 357.94 184.78 352.40 169.53"
/>
<path stroke="#e1cb57" vector-effect="non-scaling-stroke" d="
  M 517.54 199.68
  Q 516.63 198.69 516.88 197.24
  C 517.23 195.16 517.68 193.43 517.45 191.24
  Q 517.06 187.58 517.55 186.24
  Q 519.33 181.33 519.58 176.12"
/>
<path stroke="#80809d" vector-effect="non-scaling-stroke" d="
  M 170.87 122.33
  A 0.54 0.54 0.0 0 0 171.37 123.07
  L 184.75 123.12
  A 0.54 0.54 0.0 0 0 185.25 122.38
  L 178.62 105.59
  A 0.54 0.54 0.0 0 0 177.62 105.58
  L 170.87 122.33"
/>
<path stroke="#80809d" vector-effect="non-scaling-stroke" d="
  M 29.73 100.29
  L 29.75 112.09
  A 0.72 0.72 0.0 0 0 30.47 112.81
  L 38.93 112.80
  A 7.68 6.32 -0.1 0 0 46.60 106.47
  L 46.60 105.87
  A 7.68 6.32 -0.1 0 0 38.91 99.56
  L 30.45 99.57
  A 0.72 0.72 0.0 0 0 29.73 100.29"
/>
<path stroke="#e5ce97" vector-effect="non-scaling-stroke" d="
  M 152.70 175.68
  A 17.55 17.55 0.0 0 0 135.15 158.13
  A 17.55 17.55 0.0 0 0 117.60 175.68
  A 17.55 17.55 0.0 0 0 135.15 193.23
  A 17.55 17.55 0.0 0 0 152.70 175.68"
/>
<path stroke="#80809d" vector-effect="non-scaling-stroke" d="
  M 85.19 161.54
  L 85.13 173.54
  A 0.62 0.62 0.0 0 0 85.75 174.16
  L 94.21 174.20
  A 7.52 6.04 0.3 0 0 101.76 168.20
  L 101.76 167.04
  A 7.52 6.04 0.3 0 0 94.27 160.96
  L 85.81 160.92
  A 0.62 0.62 0.0 0 0 85.19 161.54"
/>
<path stroke="#654f35" vector-effect="non-scaling-stroke" d="
  M 441.75 239.92
  L 431.11 239.42"
/>
</g>
<path fill="#ffffff" d="
  M 0.00 0.00
  L 418.54 0.00
  L 372.46 32.97
  Q 372.05 33.26 372.05 33.77
  L 372.07 62.11
  Q 364.33 69.19 358.33 76.87
  Q 356.55 79.43 354.88 81.41
  Q 352.54 84.17 351.49 85.94
  Q 329.96 122.31 339.50 163.50
  Q 343.19 179.44 353.14 194.45
  Q 360.63 206.35 371.80 215.17
  L 371.83 253.82
  A 0.49 0.48 90.0 0 0 372.31 254.31
  L 419.98 254.32
  Q 420.40 254.32 420.40 253.90
  L 420.44 52.97
  Q 420.57 51.28 421.17 50.20
  Q 421.42 49.76 421.93 49.73
  L 430.98 49.18
  L 431.16 229.01
  L 423.00 228.51
  A 0.92 0.91 -12.5 0 0 422.14 229.86
  C 423.02 231.47 423.94 235.28 422.39 236.71
  A 0.89 0.89 0.0 0 0 422.87 238.25
  L 431.11 239.42
  L 431.10 274.94
  A 0.30 0.30 0.0 0 1 430.78 275.24
  Q 415.00 274.17 399.42 270.66
  C 369.73 263.98 340.37 253.56 312.45 240.34
  Q 310.43 239.38 312.13 240.82
  C 345.71 269.26 385.91 291.61 430.53 292.26
  A 0.70 0.70 0.0 0 1 431.22 292.96
  L 431.13 303.62
  A 0.58 0.58 0.0 0 0 431.71 304.20
  L 441.09 304.20
  A 0.67 0.67 0.0 0 0 441.76 303.53
  L 441.71 292.97
  Q 441.70 292.26 442.41 292.26
  Q 497.02 292.03 539.73 256.85
  Q 550.01 248.39 557.57 240.58
  Q 558.80 239.31 557.26 240.18
  Q 552.68 242.76 547.67 245.23
  C 514.84 261.38 478.93 274.06 442.78 275.62
  Q 441.71 275.67 441.71 274.59
  L 441.75 239.92
  Q 442.91 239.01 444.26 239.08
  Q 449.34 239.33 452.28 237.34
  L 452.39 253.91
  A 0.40 0.40 0.0 0 0 452.79 254.31
  L 500.67 254.30
  A 0.37 0.37 0.0 0 0 501.04 253.93
  L 500.95 216.94
  C 502.56 215.36 504.59 214.05 506.03 212.70
  Q 512.40 206.70 517.54 199.68
  Q 519.48 196.96 521.41 194.26
  Q 523.60 191.19 525.00 188.66
  C 541.98 157.98 542.13 120.78 525.08 89.90
  Q 522.17 84.63 519.12 81.03
  Q 511.87 69.82 500.93 61.52
  L 501.01 34.58
  Q 501.02 33.39 500.05 32.70
  L 454.42 0.00
  L 599.00 0.00
  L 599.00 325.00
  L 0.00 325.00
  L 0.00 0.00
  Z
  M 188.19 129.81
  L 190.67 135.53
  Q 190.97 136.23 191.74 136.24
  L 197.81 136.29
  Q 198.42 136.29 198.17 135.73
  L 179.52 93.05
  A 1.59 1.59 0.0 0 0 176.61 93.05
  L 158.04 135.52
  Q 157.72 136.24 158.51 136.25
  L 164.31 136.28
  Q 165.09 136.28 165.41 135.58
  L 167.90 130.08
  A 1.00 0.99 -77.3 0 1 168.80 129.50
  L 187.75 129.52
  A 0.48 0.47 -11.0 0 1 188.19 129.81
  Z
  M 73.43 135.83
  Q 74.96 136.51 79.63 136.25
  A 0.45 0.44 88.7 0 0 80.05 135.80
  L 80.01 108.02
  Q 80.00 106.85 80.78 107.73
  L 106.56 136.95
  A 1.46 1.45 -59.2 0 0 109.07 136.31
  Q 109.13 136.07 109.13 135.80
  Q 109.28 114.47 109.18 93.45
  Q 109.17 93.15 108.87 93.15
  L 102.70 93.19
  Q 102.33 93.19 102.33 93.55
  L 102.39 121.23
  Q 102.40 122.78 101.36 121.62
  L 73.58 90.47
  Q 72.41 115.06 73.43 135.83
  Z
  M 124.77 107.45
  A 0.55 0.54 -13.7 0 1 125.04 107.61
  Q 138.43 122.90 150.16 136.25
  Q 151.25 137.49 152.90 137.22
  A 0.50 0.49 86.0 0 0 153.32 136.73
  L 153.31 93.52
  Q 153.31 93.22 153.02 93.22
  L 146.91 93.23
  Q 146.56 93.23 146.56 93.58
  L 146.61 121.07
  Q 146.62 122.73 145.52 121.48
  Q 132.55 106.69 120.45 93.06
  Q 119.36 91.83 117.87 92.31
  Q 117.37 92.47 117.37 92.99
  L 117.31 135.87
  Q 117.31 136.23 117.67 136.23
  L 123.96 136.27
  Q 124.24 136.27 124.24 135.98
  Q 124.21 121.51 124.26 107.57
  Q 124.26 107.35 124.77 107.45
  Z
  M 216.90 92.64
  C 192.23 96.90 192.01 132.00 216.54 136.68
  Q 230.74 139.39 239.48 127.59
  A 0.82 0.81 -53.8 0 0 239.31 126.44
  L 234.98 123.31
  Q 234.51 122.97 234.20 123.46
  C 230.67 129.21 223.65 131.90 217.15 130.13
  Q 207.66 127.56 205.64 118.05
  C 204.40 112.20 206.55 105.60 211.54 102.05
  C 219.35 96.51 228.55 98.07 234.11 105.75
  Q 234.65 106.50 235.39 105.94
  L 239.15 103.04
  A 0.99 0.98 -37.8 0 0 239.33 101.65
  Q 230.50 90.30 216.90 92.64
  Z
  M 65.52 93.40
  A 0.27 0.27 0.0 0 0 65.25 93.13
  L 58.91 93.13
  A 0.27 0.27 0.0 0 0 58.64 93.40
  L 58.64 135.96
  A 0.27 0.27 0.0 0 0 58.91 136.23
  L 65.25 136.23
  A 0.27 0.27 0.0 0 0 65.52 135.96
  L 65.52 93.40
  Z
  M 283.92 129.86
  A 0.46 0.46 0.0 0 1 283.46 129.40
  L 283.48 117.18
  A 0.46 0.46 0.0 0 1 283.94 116.72
  L 299.29 116.74
  A 0.46 0.46 0.0 0 0 299.75 116.28
  L 299.81 110.70
  A 0.46 0.46 0.0 0 0 299.35 110.23
  L 283.92 110.29
  A 0.46 0.46 0.0 0 1 283.46 109.83
  L 283.50 100.08
  A 0.46 0.46 0.0 0 1 283.96 99.62
  L 304.80 99.66
  A 0.46 0.46 0.0 0 0 305.26 99.20
  L 305.29 93.71
  A 0.46 0.46 0.0 0 0 304.83 93.25
  L 277.00 93.21
  A 0.46 0.46 0.0 0 0 276.54 93.67
  L 276.50 135.80
  A 0.46 0.46 0.0 0 0 276.96 136.26
  L 305.66 136.26
  A 0.46 0.46 0.0 0 0 306.12 135.80
  L 306.17 130.27
  A 0.46 0.46 0.0 0 0 305.71 129.81
  L 283.92 129.86
  Z
  M 29.74 119.65
  A 0.43 0.43 0.0 0 1 30.19 119.22
  Q 36.18 119.42 41.14 119.14
  Q 45.58 118.88 49.19 115.97
  C 53.52 112.48 54.76 105.86 52.71 101.03
  Q 49.85 94.33 41.63 93.50
  Q 35.62 92.90 23.61 93.31
  Q 23.05 93.33 23.05 93.90
  L 23.03 136.01
  A 0.23 0.23 0.0 0 0 23.26 136.24
  L 29.50 136.25
  A 0.25 0.24 90.0 0 0 29.74 136.00
  L 29.74 119.65
  Z
  M 253.07 129.91
  A 0.32 0.32 0.0 0 1 252.75 129.59
  L 252.76 93.54
  A 0.32 0.32 0.0 0 0 252.44 93.22
  L 246.30 93.21
  A 0.32 0.32 0.0 0 0 245.98 93.53
  L 245.97 135.93
  A 0.32 0.32 0.0 0 0 246.29 136.25
  L 272.57 136.26
  A 0.32 0.32 0.0 0 0 272.89 135.94
  L 272.90 130.17
  A 0.32 0.32 0.0 0 0 272.58 129.85
  L 253.07 129.91
  Z
  M 158.4409 176.4997
  A 23.27 22.98 1.6 0 0 135.8216 152.8790
  A 23.27 22.98 1.6 0 0 111.9191 175.2003
  A 23.27 22.98 1.6 0 0 134.5384 198.8210
  A 23.27 22.98 1.6 0 0 158.4409 176.4997
  Z
  M 183.11 168.82
  Q 183.47 168.62 183.70 168.89
  Q 196.74 183.80 208.72 197.25
  Q 211.94 200.86 211.95 196.03
  L 212.02 154.75
  A 0.25 0.25 0.0 0 0 211.77 154.50
  L 205.50 154.57
  Q 205.33 154.57 205.33 154.75
  L 205.40 182.69
  Q 205.41 184.06 204.49 183.04
  Q 192.29 169.34 179.49 154.66
  Q 178.25 153.25 176.57 153.82
  Q 176.09 153.99 176.09 154.49
  L 176.06 197.03
  Q 176.06 197.76 176.79 197.75
  L 182.29 197.67
  Q 182.95 197.66 182.95 197.00
  L 182.91 169.17
  A 0.41 0.38 76.4 0 1 183.11 168.82
  Z
  M 85.44 180.51
  Q 90.75 180.55 95.87 180.47
  C 104.60 180.33 110.65 172.87 108.57 164.17
  C 106.91 157.25 100.49 154.36 93.75 154.46
  Q 85.87 154.58 78.66 154.54
  Q 78.12 154.53 78.12 155.07
  L 78.10 196.91
  Q 78.10 197.72 78.91 197.72
  L 84.50 197.72
  Q 85.22 197.72 85.21 197.00
  L 85.11 180.83
  A 0.33 0.32 -0.0 0 1 85.44 180.51
  Z
  M 168.48 154.92
  A 0.40 0.40 0.0 0 0 168.08 154.52
  L 162.06 154.52
  A 0.40 0.40 0.0 0 0 161.66 154.92
  L 161.66 197.32
  A 0.40 0.40 0.0 0 0 162.06 197.72
  L 168.08 197.72
  A 0.40 0.40 0.0 0 0 168.48 197.32
  L 168.48 154.92
  Z
  M 237.49 161.20
  A 0.35 0.35 0.0 0 1 237.84 160.85
  L 251.92 160.93
  A 0.35 0.35 0.0 0 0 252.27 160.58
  L 252.31 154.88
  A 0.35 0.35 0.0 0 0 251.96 154.53
  L 216.21 154.55
  A 0.35 0.35 0.0 0 0 215.86 154.90
  L 215.89 160.58
  A 0.35 0.35 0.0 0 0 216.24 160.93
  L 230.19 160.83
  A 0.35 0.35 0.0 0 1 230.54 161.18
  L 230.57 197.38
  A 0.35 0.35 0.0 0 0 230.92 197.73
  L 237.13 197.70
  A 0.35 0.35 0.0 0 0 237.48 197.35
  L 237.49 161.20
  Z
  M 307.48 214.49
  A 0.46 0.46 0.0 0 0 307.02 214.03
  L 22.14 214.03
  A 0.46 0.46 0.0 0 0 21.68 214.49
  L 21.68 220.11
  A 0.46 0.46 0.0 0 0 22.14 220.57
  L 307.02 220.57
  A 0.46 0.46 0.0 0 0 307.48 220.11
  L 307.48 214.49
  Z
  M 118.26 242.49
  L 118.26 254.02
  Q 118.26 254.77 119.02 254.76
  L 120.88 254.72
  Q 121.71 254.70 121.72 253.87
  L 121.75 233.47
  A 0.69 0.68 82.0 0 0 120.88 232.81
  Q 120.42 232.94 120.11 233.35
  Q 115.97 238.92 111.69 244.52
  A 0.41 0.41 0.0 0 1 111.04 244.52
  L 103.10 233.94
  Q 100.74 230.80 100.76 234.73
  L 100.83 253.78
  Q 100.84 254.73 101.78 254.74
  L 103.72 254.75
  Q 104.45 254.76 104.45 254.03
  L 104.50 242.06
  Q 104.50 241.20 105.03 241.88
  L 110.62 249.15
  A 0.99 0.99 0.0 0 0 112.19 249.14
  L 117.46 242.22
  Q 118.26 241.17 118.26 242.49
  Z
  M 134.25 233.37
  A 0.63 0.63 0.0 0 0 133.62 232.74
  L 131.32 232.74
  A 0.63 0.63 0.0 0 0 130.69 233.37
  L 130.69 254.11
  A 0.63 0.63 0.0 0 0 131.32 254.74
  L 133.62 254.74
  A 0.63 0.63 0.0 0 0 134.25 254.11
  L 134.25 233.37
  Z
  M 146.18 241.44
  Q 146.18 240.07 147.10 241.08
  Q 153.21 247.78 158.93 254.11
  Q 159.43 254.67 160.13 254.90
  A 0.45 0.45 0.0 0 0 160.73 254.47
  Q 160.77 243.97 160.76 233.60
  Q 160.76 232.92 160.16 232.82
  Q 159.19 232.66 158.04 232.71
  A 0.85 0.85 0.0 0 0 157.22 233.57
  L 157.23 246.20
  Q 157.24 247.51 156.36 246.54
  Q 150.76 240.34 144.39 233.31
  Q 143.93 232.80 143.25 232.74
  A 0.55 0.55 0.0 0 0 142.65 233.29
  L 142.66 254.07
  Q 142.66 254.73 143.32 254.73
  L 145.34 254.75
  Q 146.19 254.76 146.19 253.91
  L 146.18 241.44
  Z
  M 173.4279 233.4732
  A 0.78 0.78 0.0 0 0 172.6492 232.6918
  L 170.6093 232.6882
  A 0.78 0.78 0.0 0 0 169.8279 233.4669
  L 169.7921 253.9668
  A 0.78 0.78 0.0 0 0 170.5708 254.7482
  L 172.6107 254.7518
  A 0.78 0.78 0.0 0 0 173.3921 253.9731
  L 173.4279 233.4732
  Z
  M 185.28 241.03
  Q 185.28 240.01 185.97 240.77
  Q 192.29 247.72 198.50 254.62
  Q 198.78 254.93 199.19 254.95
  A 0.67 0.66 0.8 0 0 199.88 254.29
  L 199.92 233.45
  Q 199.92 232.73 199.20 232.72
  L 197.07 232.68
  A 0.75 0.74 -89.6 0 0 196.32 233.43
  L 196.33 246.22
  Q 196.33 247.42 195.52 246.53
  L 183.63 233.46
  Q 181.77 231.41 181.77 234.18
  L 181.76 253.86
  Q 181.76 254.71 182.61 254.72
  L 184.52 254.75
  Q 185.29 254.76 185.29 253.98
  L 185.28 241.03
  Z
  M 222.62 246.28
  A 1.21 1.20 -70.1 0 1 223.54 248.25
  Q 219.99 252.58 215.02 251.36
  C 208.21 249.69 206.36 241.21 212.23 237.39
  C 215.85 235.03 219.85 235.80 222.80 238.86
  A 0.97 0.96 -37.5 0 0 223.99 239.01
  Q 224.78 238.52 225.36 237.81
  Q 225.75 237.33 225.35 236.86
  C 220.77 231.58 213.45 231.39 208.40 236.04
  C 205.14 239.03 204.37 244.31 206.14 248.20
  C 209.55 255.73 219.08 256.71 225.15 251.53
  C 227.34 249.65 227.17 246.28 227.03 243.54
  A 0.57 0.57 0.0 0 0 226.46 243.00
  L 217.16 242.98
  Q 216.55 242.98 216.55 243.59
  L 216.56 245.54
  Q 216.57 246.27 217.29 246.27
  L 222.62 246.28
  Z"
/>
<path fill="#00013a" d="
  M 418.54 0.00
  L 420.51 0.00
  L 420.49 40.52
  L 420.44 52.97
  L 420.40 253.90
  Q 420.40 254.32 419.98 254.32
  L 372.31 254.31
  A 0.49 0.48 90.0 0 1 371.83 253.82
  L 371.80 215.17
  L 371.67 201.60
  L 371.87 77.33
  L 372.07 62.11
  L 372.05 33.77
  Q 372.05 33.26 372.46 32.97
  L 418.54 0.00
  Z"
/>
<path fill="#ffffff" d="
  M 420.51 0.00
  L 430.95 0.00
  L 431.07 38.40
  Q 427.43 39.49 423.20 39.62
  Q 422.57 39.63 421.99 40.40
  Q 421.64 40.86 421.35 40.89
  Q 420.92 40.93 420.49 40.52
  L 420.51 0.00
  Z"
/>
<path fill="#00013a" d="
  M 430.95 0.00
  L 441.79 0.00
  L 441.77 38.31
  L 431.07 38.40
  L 430.95 0.00
  Z"
/>
<path fill="#ffffff" d="
  M 441.79 0.00
  L 452.43 0.00
  L 452.48 39.67
  L 441.77 38.31
  L 441.79 0.00
  Z"
/>
<path fill="#00013a" d="
  M 452.43 0.00
  L 454.42 0.00
  L 500.05 32.70
  Q 501.02 33.39 501.01 34.58
  L 500.93 61.52
  L 500.96 76.29
  L 500.96 202.79
  L 500.95 216.94
  L 501.04 253.93
  A 0.37 0.37 0.0 0 1 500.67 254.30
  L 452.79 254.31
  A 0.40 0.40 0.0 0 1 452.39 253.91
  L 452.28 237.34
  L 452.49 228.87
  L 452.49 49.83
  L 452.48 39.67
  L 452.43 0.00
  Z"
/>
<path fill="#ca9c2f" d="
  M 441.77 38.31
  L 452.48 39.67
  L 452.49 49.83
  L 441.75 49.37
  L 430.98 49.18
  L 421.93 49.73
  Q 421.42 49.76 421.17 50.20
  Q 420.57 51.28 420.44 52.97
  L 420.49 40.52
  Q 420.92 40.93 421.35 40.89
  Q 421.64 40.86 421.99 40.40
  Q 422.57 39.63 423.20 39.62
  Q 427.43 39.49 431.07 38.40
  L 441.77 38.31
  Z"
/>
<path fill="#00013a" d="
  M 441.75 49.37
  L 441.74 228.76
  L 431.16 229.01
  L 430.98 49.18
  L 441.75 49.37
  Z"
/>
<path fill="#ffffff" d="
  M 452.49 49.83
  L 452.49 228.87
  L 441.74 228.76
  L 441.75 49.37
  L 452.49 49.83
  Z"
/>
<path fill="#ca9c2f" d="
  M 372.07 62.11
  L 371.87 77.33
  Q 363.27 86.39 357.10 97.91
  Q 356.82 87.48 358.33 76.87
  Q 364.33 69.19 372.07 62.11
  Z"
/>
<path fill="#ca9c2f" d="
  M 500.93 61.52
  Q 511.87 69.82 519.12 81.03
  C 516.44 83.30 518.99 84.39 518.92 86.75
  Q 518.81 90.29 519.11 93.07
  Q 519.12 93.19 519.32 96.98
  Q 519.43 99.23 520.41 101.72
  Q 520.72 102.50 519.52 102.43
  C 515.73 93.05 509.23 84.74 502.75 77.01
  Q 502.39 76.57 502.43 75.94
  Q 502.46 75.54 502.08 75.43
  Q 501.76 75.34 501.43 75.36
  Q 500.96 75.40 500.92 75.88
  Q 500.91 76.10 500.96 76.29
  L 500.93 61.52
  Z"
/>
<path fill="#ffffff" d="
  M 519.52 102.43
  C 529.06 124.91 529.99 149.59 520.86 172.28
  Q 520.07 174.25 519.58 176.12
  Q 517.87 180.05 515.82 183.34
  Q 510.59 191.75 504.22 199.31
  Q 503.81 199.80 502.90 201.28
  Q 502.01 202.72 500.96 202.79
  L 500.96 76.29
  Q 500.91 76.10 500.92 75.88
  Q 500.96 75.40 501.43 75.36
  Q 501.76 75.34 502.08 75.43
  Q 502.46 75.54 502.43 75.94
  Q 502.39 76.57 502.75 77.01
  C 509.23 84.74 515.73 93.05 519.52 102.43
  Z"
/>
<path fill="#f7f97f" d="
  M 358.33 76.87
  Q 356.82 87.48 357.10 97.91
  Q 340.12 132.35 352.40 169.53
  Q 352.10 169.33 351.79 169.35
  A 0.51 0.50 81.4 0 0 351.32 169.99
  L 352.97 175.83
  Q 353.08 176.25 352.83 176.60
  Q 352.46 177.11 352.43 177.73
  Q 352.17 183.80 352.82 189.57
  Q 352.88 190.07 353.23 190.42
  Q 355.13 192.34 353.14 194.45
  Q 343.19 179.44 339.50 163.50
  Q 329.96 122.31 351.49 85.94
  Q 352.54 84.17 354.88 81.41
  Q 356.55 79.43 358.33 76.87
  Z"
/>
<path fill="#ffffff" d="
  M 371.87 77.33
  L 371.67 201.60
  Q 370.53 201.39 369.73 199.54
  Q 369.07 198.04 368.37 197.21
  Q 357.94 184.78 352.40 169.53
  Q 340.12 132.35 357.10 97.91
  Q 363.27 86.39 371.87 77.33
  Z"
/>
<path fill="#f7f97f" d="
  M 519.12 81.03
  Q 522.17 84.63 525.08 89.90
  C 542.13 120.78 541.98 157.98 525.00 188.66
  Q 523.60 191.19 521.41 194.26
  Q 519.48 196.96 517.54 199.68
  Q 516.63 198.69 516.88 197.24
  C 517.23 195.16 517.68 193.43 517.45 191.24
  Q 517.06 187.58 517.55 186.24
  Q 519.33 181.33 519.58 176.12
  Q 520.07 174.25 520.86 172.28
  C 529.99 149.59 529.06 124.91 519.52 102.43
  Q 520.72 102.50 520.41 101.72
  Q 519.43 99.23 519.32 96.98
  Q 519.12 93.19 519.11 93.07
  Q 518.81 90.29 518.92 86.75
  C 518.99 84.39 516.44 83.30 519.12 81.03
  Z"
/>
<path fill="#00013a" d="
  M 188.19 129.81
  A 0.48 0.47 -11.0 0 0 187.75 129.52
  L 168.80 129.50
  A 1.00 0.99 -77.3 0 0 167.90 130.08
  L 165.41 135.58
  Q 165.09 136.28 164.31 136.28
  L 158.51 136.25
  Q 157.72 136.24 158.04 135.52
  L 176.61 93.05
  A 1.59 1.59 0.0 0 1 179.52 93.05
  L 198.17 135.73
  Q 198.42 136.29 197.81 136.29
  L 191.74 136.24
  Q 190.97 136.23 190.67 135.53
  L 188.19 129.81
  Z
  M 170.87 122.33
  A 0.54 0.54 0.0 0 0 171.37 123.07
  L 184.75 123.12
  A 0.54 0.54 0.0 0 0 185.25 122.38
  L 178.62 105.59
  A 0.54 0.54 0.0 0 0 177.62 105.58
  L 170.87 122.33
  Z"
/>
<path fill="#0e0f35" d="
  M 73.58 90.47
  Q 74.64 98.67 74.49 104.68
  Q 74.27 113.73 74.27 113.82
  Q 74.40 124.59 73.43 135.83
  Q 72.41 115.06 73.58 90.47
  Z"
/>
<path fill="#00013a" d="
  M 73.58 90.47
  L 101.36 121.62
  Q 102.40 122.78 102.39 121.23
  L 102.33 93.55
  Q 102.33 93.19 102.70 93.19
  L 108.87 93.15
  Q 109.17 93.15 109.18 93.45
  Q 109.28 114.47 109.13 135.80
  Q 109.13 136.07 109.07 136.31
  A 1.46 1.45 -59.2 0 1 106.56 136.95
  L 80.78 107.73
  Q 80.00 106.85 80.01 108.02
  L 80.05 135.80
  A 0.45 0.44 88.7 0 1 79.63 136.25
  Q 74.96 136.51 73.43 135.83
  Q 74.40 124.59 74.27 113.82
  Q 74.27 113.73 74.49 104.68
  Q 74.64 98.67 73.58 90.47
  Z"
/>
<path fill="#00013a" d="
  M 124.77 107.45
  Q 124.26 107.35 124.26 107.57
  Q 124.21 121.51 124.24 135.98
  Q 124.24 136.27 123.96 136.27
  L 117.67 136.23
  Q 117.31 136.23 117.31 135.87
  L 117.37 92.99
  Q 117.37 92.47 117.87 92.31
  Q 119.36 91.83 120.45 93.06
  Q 132.55 106.69 145.52 121.48
  Q 146.62 122.73 146.61 121.07
  L 146.56 93.58
  Q 146.56 93.23 146.91 93.23
  L 153.02 93.22
  Q 153.31 93.22 153.31 93.52
  L 153.32 136.73
  A 0.50 0.49 86.0 0 1 152.90 137.22
  Q 151.25 137.49 150.16 136.25
  Q 138.43 122.90 125.04 107.61
  A 0.55 0.54 -13.7 0 0 124.77 107.45
  Z"
/>
<path fill="#00013a" d="
  M 216.90 92.64
  Q 230.50 90.30 239.33 101.65
  A 0.99 0.98 -37.8 0 1 239.15 103.04
  L 235.39 105.94
  Q 234.65 106.50 234.11 105.75
  C 228.55 98.07 219.35 96.51 211.54 102.05
  C 206.55 105.60 204.40 112.20 205.64 118.05
  Q 207.66 127.56 217.15 130.13
  C 223.65 131.90 230.67 129.21 234.20 123.46
  Q 234.51 122.97 234.98 123.31
  L 239.31 126.44
  A 0.82 0.81 -53.8 0 1 239.48 127.59
  Q 230.74 139.39 216.54 136.68
  C 192.01 132.00 192.23 96.90 216.90 92.64
  Z"
/>
<rect fill="#00013a" x="58.64" y="93.13" width="6.88" height="43.10" rx="0.27"/>
<path fill="#0e0f35" d="
  M 283.92 129.86
  L 305.71 129.81
  A 0.46 0.46 0.0 0 1 306.17 130.27
  L 306.12 135.80
  A 0.46 0.46 0.0 0 1 305.66 136.26
  L 276.96 136.26
  A 0.46 0.46 0.0 0 1 276.50 135.80
  L 276.54 93.67
  A 0.46 0.46 0.0 0 1 277.00 93.21
  L 304.83 93.25
  A 0.46 0.46 0.0 0 1 305.29 93.71
  L 305.26 99.20
  A 0.46 0.46 0.0 0 1 304.80 99.66
  L 283.96 99.62
  A 0.46 0.46 0.0 0 0 283.50 100.08
  L 283.46 109.83
  A 0.46 0.46 0.0 0 0 283.92 110.29
  L 299.35 110.23
  A 0.46 0.46 0.0 0 1 299.81 110.70
  L 299.75 116.28
  A 0.46 0.46 0.0 0 1 299.29 116.74
  L 283.94 116.72
  A 0.46 0.46 0.0 0 0 283.48 117.18
  L 283.46 129.40
  A 0.46 0.46 0.0 0 0 283.92 129.86
  Z"
/>
<path fill="#00013a" d="
  M 29.74 119.65
  L 29.74 136.00
  A 0.25 0.24 90.0 0 1 29.50 136.25
  L 23.26 136.24
  A 0.23 0.23 0.0 0 1 23.03 136.01
  L 23.05 93.90
  Q 23.05 93.33 23.61 93.31
  Q 35.62 92.90 41.63 93.50
  Q 49.85 94.33 52.71 101.03
  C 54.76 105.86 53.52 112.48 49.19 115.97
  Q 45.58 118.88 41.14 119.14
  Q 36.18 119.42 30.19 119.22
  A 0.43 0.43 0.0 0 0 29.74 119.65
  Z
  M 29.73 100.29
  L 29.75 112.09
  A 0.72 0.72 0.0 0 0 30.47 112.81
  L 38.93 112.80
  A 7.68 6.32 -0.1 0 0 46.60 106.47
  L 46.60 105.87
  A 7.68 6.32 -0.1 0 0 38.91 99.56
  L 30.45 99.57
  A 0.72 0.72 0.0 0 0 29.73 100.29
  Z"
/>
<path fill="#0e0f35" d="
  M 253.07 129.91
  L 272.58 129.85
  A 0.32 0.32 0.0 0 1 272.90 130.17
  L 272.89 135.94
  A 0.32 0.32 0.0 0 1 272.57 136.26
  L 246.29 136.25
  A 0.32 0.32 0.0 0 1 245.97 135.93
  L 245.98 93.53
  A 0.32 0.32 0.0 0 1 246.30 93.21
  L 252.44 93.22
  A 0.32 0.32 0.0 0 1 252.76 93.54
  L 252.75 129.59
  A 0.32 0.32 0.0 0 0 253.07 129.91
  Z"
/>
<path fill="#ffffff" d="
  M 29.73 100.29
  A 0.72 0.72 0.0 0 1 30.45 99.57
  L 38.91 99.56
  A 7.68 6.32 -0.1 0 1 46.60 105.87
  L 46.60 106.47
  A 7.68 6.32 -0.1 0 1 38.93 112.80
  L 30.47 112.81
  A 0.72 0.72 0.0 0 1 29.75 112.09
  L 29.73 100.29
  Z"
/>
<path fill="#ffffff" d="
  M 170.87 122.33
  L 177.62 105.58
  A 0.54 0.54 0.0 0 1 178.62 105.59
  L 185.25 122.38
  A 0.54 0.54 0.0 0 1 184.75 123.12
  L 171.37 123.07
  A 0.54 0.54 0.0 0 1 170.87 122.33
  Z"
/>
<path fill="#ca9c2f" d="
  M 158.4409 176.4997
  A 23.27 22.98 1.6 0 1 134.5384 198.8210
  A 23.27 22.98 1.6 0 1 111.9191 175.2003
  A 23.27 22.98 1.6 0 1 135.8216 152.8790
  A 23.27 22.98 1.6 0 1 158.4409 176.4997
  Z
  M 152.70 175.68
  A 17.55 17.55 0.0 0 0 135.15 158.13
  A 17.55 17.55 0.0 0 0 117.60 175.68
  A 17.55 17.55 0.0 0 0 135.15 193.23
  A 17.55 17.55 0.0 0 0 152.70 175.68
  Z"
/>
<path fill="#00013a" d="
  M 183.11 168.82
  A 0.41 0.38 76.4 0 0 182.91 169.17
  L 182.95 197.00
  Q 182.95 197.66 182.29 197.67
  L 176.79 197.75
  Q 176.06 197.76 176.06 197.03
  L 176.09 154.49
  Q 176.09 153.99 176.57 153.82
  Q 178.25 153.25 179.49 154.66
  Q 192.29 169.34 204.49 183.04
  Q 205.41 184.06 205.40 182.69
  L 205.33 154.75
  Q 205.33 154.57 205.50 154.57
  L 211.77 154.50
  A 0.25 0.25 0.0 0 1 212.02 154.75
  L 211.95 196.03
  Q 211.94 200.86 208.72 197.25
  Q 196.74 183.80 183.70 168.89
  Q 183.47 168.62 183.11 168.82
  Z"
/>
<path fill="#00013a" d="
  M 85.44 180.51
  A 0.33 0.32 0.0 0 0 85.11 180.83
  L 85.21 197.00
  Q 85.22 197.72 84.50 197.72
  L 78.91 197.72
  Q 78.10 197.72 78.10 196.91
  L 78.12 155.07
  Q 78.12 154.53 78.66 154.54
  Q 85.87 154.58 93.75 154.46
  C 100.49 154.36 106.91 157.25 108.57 164.17
  C 110.65 172.87 104.60 180.33 95.87 180.47
  Q 90.75 180.55 85.44 180.51
  Z
  M 85.19 161.54
  L 85.13 173.54
  A 0.62 0.62 0.0 0 0 85.75 174.16
  L 94.21 174.20
  A 7.52 6.04 0.3 0 0 101.76 168.20
  L 101.76 167.04
  A 7.52 6.04 0.3 0 0 94.27 160.96
  L 85.81 160.92
  A 0.62 0.62 0.0 0 0 85.19 161.54
  Z"
/>
<rect fill="#0e0f35" x="161.66" y="154.52" width="6.82" height="43.20" rx="0.40"/>
<path fill="#00013a" d="
  M 237.49 161.20
  L 237.48 197.35
  A 0.35 0.35 0.0 0 1 237.13 197.70
  L 230.92 197.73
  A 0.35 0.35 0.0 0 1 230.57 197.38
  L 230.54 161.18
  A 0.35 0.35 0.0 0 0 230.19 160.83
  L 216.24 160.93
  A 0.35 0.35 0.0 0 1 215.89 160.58
  L 215.86 154.90
  A 0.35 0.35 0.0 0 1 216.21 154.55
  L 251.96 154.53
  A 0.35 0.35 0.0 0 1 252.31 154.88
  L 252.27 160.58
  A 0.35 0.35 0.0 0 1 251.92 160.93
  L 237.84 160.85
  A 0.35 0.35 0.0 0 0 237.49 161.20
  Z"
/>
<circle fill="#ffffff" cx="135.15" cy="175.68" r="17.55"/>
<path fill="#ffffff" d="
  M 85.19 161.54
  A 0.62 0.62 0.0 0 1 85.81 160.92
  L 94.27 160.96
  A 7.52 6.04 0.3 0 1 101.76 167.04
  L 101.76 168.20
  A 7.52 6.04 0.3 0 1 94.21 174.20
  L 85.75 174.16
  A 0.62 0.62 0.0 0 1 85.13 173.54
  L 85.19 161.54
  Z"
/>
<path fill="#ca9c2f" d="
  M 352.40 169.53
  Q 357.94 184.78 368.37 197.21
  Q 369.07 198.04 369.73 199.54
  Q 370.53 201.39 371.67 201.60
  L 371.80 215.17
  Q 360.63 206.35 353.14 194.45
  Q 355.13 192.34 353.23 190.42
  Q 352.88 190.07 352.82 189.57
  Q 352.17 183.80 352.43 177.73
  Q 352.46 177.11 352.83 176.60
  Q 353.08 176.25 352.97 175.83
  L 351.32 169.99
  A 0.51 0.50 81.4 0 1 351.79 169.35
  Q 352.10 169.33 352.40 169.53
  Z"
/>
<path fill="#ca9c2f" d="
  M 519.58 176.12
  Q 519.33 181.33 517.55 186.24
  Q 517.06 187.58 517.45 191.24
  C 517.68 193.43 517.23 195.16 516.88 197.24
  Q 516.63 198.69 517.54 199.68
  Q 512.40 206.70 506.03 212.70
  C 504.59 214.05 502.56 215.36 500.95 216.94
  L 500.96 202.79
  Q 502.01 202.72 502.90 201.28
  Q 503.81 199.80 504.22 199.31
  Q 510.59 191.75 515.82 183.34
  Q 517.87 180.05 519.58 176.12
  Z"
/>
<rect fill="#0e0f35" x="21.68" y="214.03" width="285.80" height="6.54" rx="0.46"/>
<path fill="#ca9c2f" d="
  M 431.16 229.01
  L 441.74 228.76
  L 452.49 228.87
  L 452.28 237.34
  Q 449.34 239.33 444.26 239.08
  Q 442.91 239.01 441.75 239.92
  L 431.11 239.42
  L 422.87 238.25
  A 0.89 0.89 0.0 0 1 422.39 236.71
  C 423.94 235.28 423.02 231.47 422.14 229.86
  A 0.92 0.91 -12.5 0 1 423.00 228.51
  L 431.16 229.01
  Z"
/>
<path fill="#0e0f35" d="
  M 118.26 242.49
  Q 118.26 241.17 117.46 242.22
  L 112.19 249.14
  A 0.99 0.99 0.0 0 1 110.62 249.15
  L 105.03 241.88
  Q 104.50 241.20 104.50 242.06
  L 104.45 254.03
  Q 104.45 254.76 103.72 254.75
  L 101.78 254.74
  Q 100.84 254.73 100.83 253.78
  L 100.76 234.73
  Q 100.74 230.80 103.10 233.94
  L 111.04 244.52
  A 0.41 0.41 0.0 0 0 111.69 244.52
  Q 115.97 238.92 120.11 233.35
  Q 120.42 232.94 120.88 232.81
  A 0.69 0.68 82.0 0 1 121.75 233.47
  L 121.72 253.87
  Q 121.71 254.70 120.88 254.72
  L 119.02 254.76
  Q 118.26 254.77 118.26 254.02
  L 118.26 242.49
  Z"
/>
<rect fill="#0e0f35" x="130.69" y="232.74" width="3.56" height="22.00" rx="0.63"/>
<path fill="#0e0f35" d="
  M 146.18 241.44
  L 146.19 253.91
  Q 146.19 254.76 145.34 254.75
  L 143.32 254.73
  Q 142.66 254.73 142.66 254.07
  L 142.65 233.29
  A 0.55 0.55 0.0 0 1 143.25 232.74
  Q 143.93 232.80 144.39 233.31
  Q 150.76 240.34 156.36 246.54
  Q 157.24 247.51 157.23 246.20
  L 157.22 233.57
  A 0.85 0.85 0.0 0 1 158.04 232.71
  Q 159.19 232.66 160.16 232.82
  Q 160.76 232.92 160.76 233.60
  Q 160.77 243.97 160.73 254.47
  A 0.45 0.45 0.0 0 1 160.13 254.90
  Q 159.43 254.67 158.93 254.11
  Q 153.21 247.78 147.10 241.08
  Q 146.18 240.07 146.18 241.44
  Z"
/>
<rect fill="#0e0f35" x="-1.80" y="-11.03" transform="translate(171.61,243.72) rotate(0.1)" width="3.60" height="22.06" rx="0.78"/>
<path fill="#0e0f35" d="
  M 185.28 241.03
  L 185.29 253.98
  Q 185.29 254.76 184.52 254.75
  L 182.61 254.72
  Q 181.76 254.71 181.76 253.86
  L 181.77 234.18
  Q 181.77 231.41 183.63 233.46
  L 195.52 246.53
  Q 196.33 247.42 196.33 246.22
  L 196.32 233.43
  A 0.75 0.74 -89.6 0 1 197.07 232.68
  L 199.20 232.72
  Q 199.92 232.73 199.92 233.45
  L 199.88 254.29
  A 0.67 0.66 0.8 0 1 199.19 254.95
  Q 198.78 254.93 198.50 254.62
  Q 192.29 247.72 185.97 240.77
  Q 185.28 240.01 185.28 241.03
  Z"
/>
<path fill="#0e0f35" d="
  M 222.62 246.28
  L 217.29 246.27
  Q 216.57 246.27 216.56 245.54
  L 216.55 243.59
  Q 216.55 242.98 217.16 242.98
  L 226.46 243.00
  A 0.57 0.57 0.0 0 1 227.03 243.54
  C 227.17 246.28 227.34 249.65 225.15 251.53
  C 219.08 256.71 209.55 255.73 206.14 248.20
  C 204.37 244.31 205.14 239.03 208.40 236.04
  C 213.45 231.39 220.77 231.58 225.35 236.86
  Q 225.75 237.33 225.36 237.81
  Q 224.78 238.52 223.99 239.01
  A 0.97 0.96 -37.5 0 1 222.80 238.86
  C 219.85 235.80 215.85 235.03 212.23 237.39
  C 206.36 241.21 208.21 249.69 215.02 251.36
  Q 219.99 252.58 223.54 248.25
  A 1.21 1.20 -70.1 0 0 222.62 246.28
  Z"
/>
<path fill="#00013a" d="
  M 441.75 239.92
  L 441.71 274.59
  Q 441.71 275.67 442.78 275.62
  C 478.93 274.06 514.84 261.38 547.67 245.23
  Q 552.68 242.76 557.26 240.18
  Q 558.80 239.31 557.57 240.58
  Q 550.01 248.39 539.73 256.85
  Q 497.02 292.03 442.41 292.26
  Q 441.70 292.26 441.71 292.97
  L 441.76 303.53
  A 0.67 0.67 0.0 0 1 441.09 304.20
  L 431.71 304.20
  A 0.58 0.58 0.0 0 1 431.13 303.62
  L 431.22 292.96
  A 0.70 0.70 0.0 0 0 430.53 292.26
  C 385.91 291.61 345.71 269.26 312.13 240.82
  Q 310.43 239.38 312.45 240.34
  C 340.37 253.56 369.73 263.98 399.42 270.66
  Q 415.00 274.17 430.78 275.24
  A 0.30 0.30 0.0 0 0 431.10 274.94
  L 431.11 239.42
  L 441.75 239.92
  Z"
/>
</svg>
